<svg width="61" height="48" viewBox="0 0 61 48" fill="none" xmlns="http://www.w3.org/2000/svg">
<path d="M43.745 17.1429C43.745 7.67464 33.9529 0 21.8725 0C9.79215 0 0 7.67464 0 17.1429C0 20.8146 1.48586 24.2089 3.99278 26.9979C2.5879 30.2379 0.264994 32.8029 0.231344 32.8393C0.118115 32.9608 0.0423442 33.1135 0.0134128 33.2784C-0.0155187 33.4433 0.00365914 33.6133 0.0685721 33.7673C0.133485 33.9212 0.241283 34.0524 0.37862 34.1445C0.515958 34.2367 0.676805 34.2858 0.84125 34.2857C4.68787 34.2857 7.87936 32.9732 10.1718 31.6093C13.5578 33.2957 17.5632 34.2857 21.8725 34.2857C33.9529 34.2857 43.745 26.6111 43.745 17.1429ZM20.19 27.4286V25.6832C19.0028 25.6211 17.8482 25.1989 16.8912 24.4671C16.4811 24.1532 16.4601 23.5275 16.8313 23.1664L18.0669 21.9654C18.3582 21.6825 18.7914 21.6696 19.1321 21.8871C19.5391 22.1464 20.0007 22.2857 20.4802 22.2857H23.4362C24.1197 22.2857 24.677 21.6514 24.677 20.8725C24.677 20.235 24.2974 19.6736 23.7548 19.5086L19.0228 18.0621C17.0679 17.4643 15.7019 15.5529 15.7019 13.4132C15.7019 10.7861 17.7052 8.65179 20.1889 8.58429V6.85714C20.1889 6.38357 20.5654 6 21.0302 6H22.7127C23.1775 6 23.5539 6.38357 23.5539 6.85714V8.6025C24.7412 8.66464 25.8958 9.08571 26.8527 9.81857C27.2628 10.1325 27.2838 10.7582 26.9126 11.1193L25.677 12.3204C25.3858 12.6032 24.9525 12.6161 24.6118 12.3986C24.2049 12.1382 23.7432 12 23.2637 12H20.3078C19.6243 12 19.0669 12.6343 19.0669 13.4132C19.0669 14.0507 19.4465 14.6121 19.9892 14.7771L24.7212 16.2236C26.676 16.8214 28.042 18.7329 28.042 20.8725C28.042 23.5007 26.0388 25.6339 23.555 25.7014V27.4286C23.555 27.9021 23.1785 28.2857 22.7137 28.2857H21.0312C20.5665 28.2857 20.19 27.9021 20.19 27.4286ZM56.5751 40.7132C59.0841 37.9243 60.57 34.5289 60.57 30.8571C60.57 23.685 54.9452 17.55 46.9701 14.9925C47.0606 15.6996 47.11 16.4164 47.11 17.1429C47.11 28.4861 35.7889 37.7143 21.8725 37.7143C20.7389 37.7143 19.6306 37.6318 18.5359 37.5129C21.8515 43.6746 29.6299 48 38.6975 48C43.0068 48 47.0122 47.01 50.3982 45.3236C52.6906 46.6875 55.8821 48 59.7287 48C60.0652 48 60.3692 47.7954 60.5006 47.4814C60.6341 47.1664 60.57 46.8021 60.3376 46.5525C60.305 46.5171 57.98 43.9554 56.5751 40.7132Z" fill="#00D3D4"/>
</svg>
